<svg width="40" height="32" fill="none" xmlns="http://www.w3.org/2000/svg"><path d="M35.266 7.956c.026.35.026.698.026 1.046 0 10.65-8.106 22.922-22.92 22.922A22.762 22.762 0 010 28.306c.648.074 1.272.1 1.946.1 3.766 0 7.232-1.272 10.002-3.442a8.072 8.072 0 01-7.534-5.586c.498.074.998.124 1.522.124.722 0 1.448-.1 2.122-.274a8.054 8.054 0 01-6.46-7.906v-.1a8.129 8.129 0 003.64 1.022 8.044 8.044 0 01-3.592-6.708c0-1.496.398-2.868 1.096-4.064a22.914 22.914 0 0016.612 8.43c-.124-.6-.2-1.222-.2-1.846A8.052 8.052 0 0127.21 0c2.32 0 4.414.972 5.886 2.544A15.914 15.914 0 0038.208.598a8.041 8.041 0 01-3.542 4.44 16.146 16.146 0 004.638-1.248 17.29 17.29 0 01-4.038 4.166z" fill="#fff"/></svg>