<svg width="44" height="32" fill="none" xmlns="http://www.w3.org/2000/svg"><path d="M37.248 2.653a37.569 37.569 0 00-8.956-2.65.138.138 0 00-.144.064 23.654 23.654 0 00-1.115 2.186 35.089 35.089 0 00-10.06 0c-.3-.688-.743-1.53-1.132-2.186a.144.144 0 00-.144-.065 37.462 37.462 0 00-8.956 2.65.127.127 0 00-.059.049C.978 10.832-.585 18.764.182 26.597a.143.143 0 00.057.098 37.198 37.198 0 0010.987 5.3.146.146 0 00.154-.05 24.712 24.712 0 002.248-3.488c.038-.071.002-.156-.076-.184a24.564 24.564 0 01-3.432-1.561.131.131 0 01-.014-.224c.23-.165.461-.336.681-.51a.141.141 0 01.143-.018c7.2 3.137 14.996 3.137 22.112 0a.14.14 0 01.144.017c.22.173.451.346.683.511a.131.131 0 01-.012.224 23.043 23.043 0 01-3.434 1.559.132.132 0 00-.074.186 27.752 27.752 0 002.246 3.487.143.143 0 00.154.05 37.077 37.077 0 0011.004-5.299.134.134 0 00.058-.097c.917-9.056-1.537-16.922-6.506-23.895a.11.11 0 00-.057-.05zM14.703 21.827c-2.168 0-3.954-1.899-3.954-4.231s1.752-4.232 3.954-4.232c2.22 0 3.99 1.916 3.955 4.232 0 2.332-1.752 4.231-3.955 4.231zm14.62 0c-2.167 0-3.954-1.899-3.954-4.231s1.752-4.232 3.955-4.232c2.22 0 3.989 1.916 3.954 4.232 0 2.332-1.734 4.231-3.954 4.231z" fill="#fff"/></svg>