<svg width="54" height="54" fill="none" xmlns="http://www.w3.org/2000/svg"><path fill-rule="evenodd" clip-rule="evenodd" d="M37.993 10.156l1.248-.7c1.67-.938 3.807-.382 4.771 1.242l9.52 16.03c.964 1.624.392 3.7-1.279 4.639L21.65 48.544c-1.67.938-3.806.382-4.77-1.242L9.844 35.457H3.493c-1.93 0-3.493-1.52-3.493-3.395v-18.51c0-1.875 1.564-3.396 3.493-3.396h34.5zM11.585 35.457l6.599 11.112c.548.924 1.763 1.24 2.713.707L51.5 30.098c.95-.533 1.275-1.714.727-2.637l-9.52-16.03c-.465-.784-1.41-1.13-2.265-.892 1.118.566 1.88 1.703 1.88 3.013v18.51c0 1.875-1.563 3.395-3.492 3.395H11.585zM1.507 13.552c0-1.066.889-1.93 1.986-1.93H38.83c1.097 0 1.986.864 1.986 1.93v18.51c0 1.066-.89 1.93-1.986 1.93H3.493c-1.097 0-1.986-.864-1.986-1.93v-18.51zm3.903.999c-.567 0-1.027.447-1.027.998v5.06c0 .552.46 1 1.027 1h12.327c.567 0 1.027-.448 1.027-1v-5.06c0-.551-.46-.998-1.027-.998H5.41zm.48 5.592v-4.128h11.368v4.128H5.89zm-1.507 4.994c0-.404.337-.732.753-.732h12.875c.416 0 .753.328.753.732a.743.743 0 01-.753.732H5.136a.743.743 0 01-.753-.732zm19.86-9.854a.743.743 0 00-.753-.732.743.743 0 00-.754.732v1.065c0 .405.338.733.754.733a.743.743 0 00.753-.733v-1.065zm5.273-.732c.416 0 .753.328.753.732v1.065a.743.743 0 01-.753.733.743.743 0 01-.753-.733v-1.065c0-.404.337-.732.753-.732zm6.78.732a.743.743 0 00-.753-.732.743.743 0 00-.754.732v1.065c0 .405.338.733.754.733a.743.743 0 00.753-.733v-1.065zm-9.42 9.784c-1.8 1.302-3.42 3.037-4.54 4.67a.767.767 0 01-1.045.204.72.72 0 01-.209-1.016c1.208-1.76 2.944-3.622 4.894-5.033 1.935-1.4 4.176-2.425 6.374-2.35.588.02 1.116.16 1.529.464.427.315.655.751.732 1.215.143.867-.233 1.853-.75 2.691a8.049 8.049 0 01-.482.693c.064.109.114.22.153.33.157.441.16.908.161 1.37v.111c1.27-.591 2.472-1.38 3.563-2.247a.768.768 0 011.06.101.725.725 0 01-.104 1.031c-1.217.97-2.568 1.85-3.996 2.495-.9.407-1.9.151-2.01-.95-.02-.192-.02-.385-.02-.579 0-.132 0-.264-.006-.396a7.97 7.97 0 01-.502.4c-.856.625-1.896 1.103-2.947 1.06-.269-.01-.644-.072-.92-.348-.331-.33-.315-.745-.228-1.018.493-1.541 3.007-2.54 4.568-2.21.153-.196.293-.396.417-.596.473-.767 1.077-2.107-.27-2.153-1.706-.058-3.608.748-5.423 2.061z" fill="#fff"/></svg>