<svg width="116" height="73" fill="none" xmlns="http://www.w3.org/2000/svg"><path d="M6.968 1.123a8.044 8.044 0 011.626-.16H45.61c2.583-.02 5.144 1.063 6.938 2.92a9.678 9.678 0 012.757 6.77V62.57c-.014 1.618.132 3.29-.46 4.834-1.075 3.212-4.297 5.55-7.691 5.537-13.313-.001-26.623.006-39.936-.003-3.607-.033-6.787-3.265-6.76-6.873-.002-19.057-.004-38.112 0-57.17.022-3.69 2.885-7.097 6.51-7.77zm17.36 17.331c-1.027.097-1.871 1.06-1.837 2.09-.003 11.165-.001 22.329-.001 33.49-.074 1.113.877 2.165 1.997 2.176 2 .016 4.001.004 6.003.008a2.107 2.107 0 001.968-1.17c.285-.545.205-1.174.217-1.763-.002-10.66-.002-21.319 0-31.979-.012-.53.054-1.09-.167-1.593a2.104 2.104 0 00-2.007-1.276c-2.058.01-4.117-.024-6.173.017zM60.408.964c13.27.004 26.538.04 39.808.05 5.111 5.096 10.205 10.21 15.309 15.313 0 13.837.003 27.677-.002 41.515-5.024 5.031-10.058 10.053-15.076 15.093-13.346.015-26.691.002-40.037.005-.002-23.991.002-47.984-.002-71.976zM83.467 18.73c-.58.31-.96.952-.944 1.61-.002 11.298-.004 22.596 0 33.893-.03.979.858 1.856 1.837 1.813 2.317.006 4.634.002 6.95.002 1 .08 1.941-.79 1.918-1.794.008-11.31.006-22.622.002-33.933.023-.938-.793-1.798-1.734-1.804-2.254-.02-4.509 0-6.762-.01-.432-.005-.886-.002-1.267.223z" fill="#fff"/></svg>